HIERARCHY
ROOT Hips
{
  OFFSET 0.000000 0.000000 0.000000
  CHANNELS 6 Xposition Yposition Zposition Zrotation Yrotation Xrotation
  JOINT Spine
  {
    OFFSET -0.000883 2.120903 -0.028059
    CHANNELS 3 Zrotation Yrotation Xrotation
    JOINT Spine1
    {
      OFFSET -0.002865 2.096658 0.129739
      CHANNELS 3 Zrotation Yrotation Xrotation
      JOINT Spine2
      {
        OFFSET -0.000072 2.101496 0.140380
        CHANNELS 3 Zrotation Yrotation Xrotation
        JOINT Neck
        {
          OFFSET 0.073278 1.835262 0.072900
          CHANNELS 3 Zrotation Yrotation Xrotation
          JOINT Head
          {
            OFFSET -0.033980 1.851628 -0.175733
            CHANNELS 3 Zrotation Yrotation Xrotation
            End Site
            {
              OFFSET 0 0 0
            }
          }
        }
        JOINT LeftShoulder
        {
          OFFSET 3.021134 1.180177 0.406022
          CHANNELS 3 Zrotation Yrotation Xrotation
          JOINT LeftArm
          {
            OFFSET 4.585380 -0.000000 -0.000000
            CHANNELS 3 Zrotation Yrotation Xrotation
            JOINT LeftForeArm
            {
              OFFSET 2.689350 -0.000000 -0.000000
              CHANNELS 3 Zrotation Yrotation Xrotation
              JOINT LeftHand
              {
                OFFSET 0.585058 -0.000000 -0.000000
                CHANNELS 3 Zrotation Yrotation Xrotation
                JOINT LeftHandIndex1
                {
                  OFFSET 0.471689 -0.000000 -0.000000
                  CHANNELS 3 Zrotation Yrotation Xrotation
                  End Site
                  {
                    OFFSET 0 0 0
                  }
                }
              }
            }
          }
        }
        JOINT RightShoulder
        {
          OFFSET -2.950738 1.188427 0.314298
          CHANNELS 3 Zrotation Yrotation Xrotation
          JOINT RightArm
          {
            OFFSET -4.474500 -0.000000 -0.000000
            CHANNELS 3 Zrotation Yrotation Xrotation
            JOINT RightForeArm
            {
              OFFSET -2.938960 -0.000000 -0.000000
              CHANNELS 3 Zrotation Yrotation Xrotation
              JOINT RightHand
              {
                OFFSET -0.405092 -0.000000 -0.000000
                CHANNELS 3 Zrotation Yrotation Xrotation
                JOINT RightHandIndex1
                {
                  OFFSET -0.326596 -0.000000 -0.000000
                  CHANNELS 3 Zrotation Yrotation Xrotation
                  End Site
                  {
                    OFFSET 0 0 0
                  }
                }
              }
            }
          }
        }
      }
    }
  }
  JOINT LeftUpLeg
  {
    OFFSET 2.251771 -6.186694 0.000000
    CHANNELS 3 Zrotation Yrotation Xrotation
    JOINT LeftLeg
    {
      OFFSET 2.266012 -6.225823 0.000000
      CHANNELS 3 Zrotation Yrotation Xrotation
      JOINT LeftFoot
      {
        OFFSET 0.237014 -0.651191 2.158476
        CHANNELS 3 Zrotation Yrotation Xrotation
        JOINT LeftToeBase
        {
          OFFSET 0.000000 -0.000000 1.129490
          CHANNELS 3 Zrotation Yrotation Xrotation
          End Site
          {
            OFFSET 0 0 0
          }
        }
      }
    }
  }
  JOINT RightUpLeg
  {
    OFFSET -2.280357 -6.265234 0.000000
    CHANNELS 3 Zrotation Yrotation Xrotation
    JOINT RightLeg
    {
      OFFSET -2.254897 -6.195283 0.000000
      CHANNELS 3 Zrotation Yrotation Xrotation
      JOINT RightFoot
      {
        OFFSET -0.283752 -0.779600 2.231370
        CHANNELS 3 Zrotation Yrotation Xrotation
        JOINT RightToeBase
        {
          OFFSET -0.000000 -0.000000 1.178990
          CHANNELS 3 Zrotation Yrotation Xrotation
          End Site
          {
            OFFSET 0 0 0
          }
        }
      }
    }
  }
}
MOTION
Frames: 9
Frame Time: 0.00833333
0.857489 15.693700 6.083360 5.481800 -2.070450 5.460380 -22.129900 -9.552230 -8.907530 0.000000 0.000000 14.661000 15.248500 0.000000 -9.518580 0.000000 0.000000 2.534740 5.733900 5.408880 -6.757020 0.000000 0.000000 29.320500 -22.101300 0.000000 -19.651600 0.000000 0.000000 -11.776700 -6.267470 -3.915510 -4.209290 0.126065 -5.179930 -7.050450 3.582720 -2.293120 -4.428690 -3.011230 -8.070220 -0.019142 -1.243730 -5.646250 7.425710 -0.000000 -0.000000 0.000000 91.228600 -14.876500 -41.400600 0.000000 0.000000 105.668000 10.948600 0.000000 -9.548630 0.000000 0.000000 7.125020 -0.000000 -0.000000 0.000000 -90.575800 27.981500 -37.755300 0.000000 0.000000 77.196900 -10.725700 0.000000 -4.770560 0.000000 0.000000 7.125020
0.945240 15.696600 6.096760 5.708190 -2.134210 5.377950 -22.780200 -9.077970 -8.623460 0.000000 0.000000 14.282600 14.836300 0.000000 -9.318980 0.000000 0.000000 2.746930 5.018310 4.945180 -6.988640 0.000000 0.000000 29.832800 -21.562000 0.000000 -19.253000 0.000000 0.000000 -12.662600 -6.368500 -3.872890 -4.027400 0.153121 -5.133390 -6.999360 3.678800 -2.263580 -4.471920 -2.891950 -8.070230 0.139791 -1.344910 -5.621280 7.056400 0.000000 0.000000 0.000000 91.679700 -14.674400 -42.376500 0.000000 0.000000 103.411000 11.212800 0.000000 -9.531690 0.000000 0.000000 7.125020 0.000000 0.000000 0.000000 -90.801400 27.614300 -38.044100 0.000000 0.000000 74.750900 -12.051300 0.000000 -4.643940 0.000000 0.000000 7.125020
1.035690 15.697500 6.111550 5.908920 -2.057450 5.251010 -23.406600 -8.659550 -8.236340 0.000000 0.000000 13.789900 14.325200 0.000000 -9.019290 0.000000 0.000000 2.850980 4.339010 4.320390 -7.156770 0.000000 0.000000 30.460700 -20.970800 0.000000 -18.871400 0.000000 0.000000 -13.571200 -6.359930 -3.858430 -3.813040 0.142035 -5.126870 -6.898750 3.674140 -2.262180 -4.487740 -2.992320 -8.073030 -0.014300 -1.354600 -5.612950 6.905780 -0.000000 -0.000000 0.000000 92.081900 -14.510600 -43.214000 0.000000 0.000000 100.898000 11.669700 0.000000 -9.445850 0.000000 0.000000 7.125020 -0.000000 -0.000000 0.000000 -90.949000 26.836700 -38.320400 0.000000 0.000000 72.198900 -12.450800 0.000000 -4.556970 0.000000 0.000000 7.125020
1.119380 15.703600 6.123900 6.086330 -2.314790 5.243110 -23.973200 -8.118710 -7.945680 0.000000 0.000000 13.294600 13.983400 0.000000 -8.818700 0.000000 0.000000 3.064260 3.668240 3.848930 -7.652580 0.000000 0.000000 31.102200 -20.360300 0.000000 -18.282300 0.000000 0.000000 -14.078400 -6.379990 -3.690890 -3.700870 0.102642 -4.913110 -6.881460 3.655850 -2.153190 -4.557570 -3.270850 -8.036180 -0.434554 -1.271800 -5.595720 7.085680 -0.000000 -0.000000 0.000000 92.494600 -14.398100 -44.034300 0.000000 0.000000 97.966200 12.232400 0.000000 -9.032190 0.000000 0.000000 7.125020 -0.000000 -0.000000 0.000000 -91.054300 25.814500 -38.687600 0.000000 0.000000 69.457200 -12.638000 0.000000 -4.305740 0.000000 0.000000 7.125020
1.204850 15.705900 6.136490 6.277870 -2.424890 5.180030 -24.560600 -7.639650 -7.594530 0.000000 0.000000 12.758100 13.567600 0.000000 -8.562910 0.000000 0.000000 3.248990 3.006310 3.377630 -8.040800 0.000000 0.000000 31.800700 -19.832000 0.000000 -17.789400 0.000000 0.000000 -14.586100 -6.393300 -3.582590 -3.538290 0.062638 -4.780980 -6.836570 3.633410 -2.086120 -4.618150 -3.465760 -8.012780 -0.742859 -1.225160 -5.580490 7.160100 -0.000000 0.000000 0.000000 92.864500 -14.198900 -44.837500 0.000000 0.000000 95.207600 12.839600 0.000000 -8.467690 0.000000 0.000000 7.125020 -0.000000 0.000000 0.000000 -91.087900 24.801900 -38.993000 0.000000 0.000000 66.810100 -13.111700 0.000000 -4.177070 0.000000 0.000000 7.125020
1.288890 15.708000 6.148470 6.464200 -2.543120 5.123000 -25.131500 -7.167330 -7.209950 0.000000 0.000000 12.136800 13.154300 0.000000 -8.272310 0.000000 0.000000 3.450150 2.366630 2.945760 -8.485460 0.000000 0.000000 32.570800 -19.356600 0.000000 -17.283000 0.000000 0.000000 -14.881200 -6.403200 -3.465430 -3.375530 0.009903 -4.638000 -6.801280 3.595790 -2.013510 -4.691480 -3.681110 -7.975310 -1.125150 -1.161610 -5.558490 7.324750 -0.000000 -0.000000 0.000000 93.191500 -13.939900 -45.601800 0.000000 0.000000 92.358700 13.523000 0.000000 -7.606530 0.000000 0.000000 7.125020 -0.000000 -0.000000 0.000000 -91.051900 23.668000 -39.308100 0.000000 0.000000 64.143000 -13.504900 0.000000 -4.135260 0.000000 0.000000 7.125020
1.371120 15.709900 6.159660 6.654940 -2.663580 5.075240 -25.695100 -6.710340 -6.830540 0.000000 0.000000 11.496300 12.747600 0.000000 -7.979870 0.000000 0.000000 3.673110 1.742890 2.560620 -8.978130 0.000000 0.000000 33.388900 -18.954000 0.000000 -16.744000 0.000000 0.000000 -14.979400 -6.433810 -3.351080 -3.208760 -0.049023 -4.499960 -6.778000 3.563150 -1.941830 -4.778510 -3.867020 -7.913850 -1.555090 -1.099530 -5.520240 7.553230 -0.000000 -0.000000 0.000000 93.467100 -13.595000 -46.332800 0.000000 0.000000 89.453600 14.258400 0.000000 -6.474590 0.000000 0.000000 7.125020 -0.000000 -0.000000 0.000000 -90.953300 22.482100 -39.624800 0.000000 0.000000 61.463300 -13.873300 0.000000 -4.212440 0.000000 0.000000 7.125020
1.451490 15.711800 6.170110 6.846760 -2.773730 5.037590 -26.247400 -6.277640 -6.436160 0.000000 0.000000 10.792200 12.346500 0.000000 -7.659170 0.000000 0.000000 3.924210 1.143300 2.224940 -9.519560 0.000000 0.000000 34.267100 -18.635900 0.000000 -16.185500 0.000000 0.000000 -14.860200 -6.490220 -3.254500 -3.035470 -0.103953 -4.386790 -6.766390 3.548910 -1.880550 -4.877250 -3.991060 -7.817200 -2.014210 -1.051010 -5.456680 7.824880 0.000000 -0.000000 0.000000 93.681600 -13.137400 -47.032700 0.000000 0.000000 86.507000 15.001200 0.000000 -5.129140 0.000000 0.000000 7.125020 0.000000 -0.000000 0.000000 -90.793200 21.283500 -39.933400 0.000000 0.000000 58.773900 -14.157100 0.000000 -4.438490 0.000000 0.000000 7.125020
1.529630 15.714000 6.179770 7.035780 -2.884970 5.020770 -26.783500 -5.869430 -6.036510 0.000000 0.000000 10.022700 11.965300 0.000000 -7.312040 0.000000 0.000000 4.209160 0.573784 1.945720 -10.125200 0.000000 0.000000 35.199600 -18.405900 0.000000 -15.601500 0.000000 0.000000 -14.513500 -6.582710 -3.180180 -2.865360 -0.143463 -4.303490 -6.766290 3.570170 -1.831590 -4.980260 -4.045410 -7.678610 -2.496960 -1.019000 -5.362860 8.128810 -0.000000 0.000000 0.000000 93.833700 -12.567300 -47.691700 0.000000 0.000000 83.509400 15.709700 0.000000 -3.683460 0.000000 0.000000 7.125020 -0.000000 0.000000 0.000000 -90.565700 20.099100 -40.220300 0.000000 0.000000 56.084800 -14.415500 0.000000 -4.769610 0.000000 0.000000 7.125020
